<svg xmlns="http://www.w3.org/2000/svg" width="157" height="68" viewBox="0 0 157 68" fill="none"><g clip-path="url(#clip0_3960_1617)"><path d="M55.6615 8.97977C55.2251 8.62515 54.524 8.32782 53.5611 8.08231C52.5954 7.83681 51.8671 7.71406 51.3761 7.71406H50.5196C49.0493 7.74134 47.9909 8.11505 47.3362 8.83519C46.6842 9.55534 46.3569 10.3655 46.3569 11.263C46.3569 12.1604 46.6433 12.916 47.2134 13.5271C47.7863 14.1381 48.4982 14.6155 49.3548 14.9564C50.2113 15.2974 51.1361 15.6848 52.129 16.1185C53.1219 16.5549 54.0466 16.9968 54.9059 17.4442C55.7624 17.8943 56.4771 18.5463 57.0473 19.4028C57.6174 20.2593 57.9038 21.3286 57.9038 22.608C57.9038 23.8873 57.4564 24.9757 56.5562 25.8732C55.6588 26.7706 54.6577 27.3708 53.5556 27.6681C52.4536 27.9682 51.2643 28.1182 49.9849 28.1182C47.2107 28.1182 45.1294 27.5072 43.7409 26.2824L43.9864 26.0369C44.5293 26.5551 45.3394 26.9752 46.4142 27.3026C47.489 27.6299 48.5283 27.7909 49.5376 27.7909C51.1415 27.7909 52.47 27.3489 53.5174 26.4651C54.5649 25.5813 55.0887 24.4793 55.0887 23.159C55.0887 21.8387 54.6931 20.7776 53.9048 19.9756C53.1165 19.1737 52.1563 18.5463 51.0269 18.0989C49.8976 17.6488 48.7629 17.2014 47.6199 16.7513C46.4769 16.3013 45.5113 15.6766 44.7229 14.8746C43.9346 14.0726 43.5391 13.1397 43.5391 12.0786C43.5391 11.0175 43.7846 10.1527 44.2728 9.48714C44.7639 8.82155 45.4158 8.35237 46.2314 8.07959C47.6199 7.61586 49.0084 7.38672 50.3941 7.38672C52.7346 7.38672 54.5567 7.82317 55.8634 8.69335L55.6588 8.97977H55.6615Z" fill="#05091E"></path><path d="M79.6575 27.9573C77.808 27.9573 76.5423 27.6026 75.8631 26.8961C75.2357 26.2987 74.9247 25.7804 74.9247 25.344V24.4875C73.5908 26.9098 71.4549 28.1182 68.517 28.1182C65.0882 28.1182 63.1432 26.5688 62.6795 23.4645C62.6249 23.1372 62.5977 22.8044 62.5977 22.4634C62.5977 22.1224 62.6522 21.7487 62.7613 21.3423C62.8704 20.9331 63.1814 20.4857 63.6997 19.9947C64.7335 19.0154 67.0058 18.418 70.5138 18.1998C71.384 18.118 72.186 18.0771 72.9225 18.0771C73.659 18.0771 74.3246 18.1043 74.922 18.1589V11.383C74.8674 11.3557 74.8674 11.2275 74.922 10.9956C74.9765 10.7638 74.9274 10.4637 74.7801 10.0982C74.6301 9.72992 74.4337 9.36985 74.1882 9.01796C73.9427 8.66334 73.509 8.35782 72.8816 8.09868C72.2569 7.83954 71.4385 7.71133 70.432 7.71133C69.4254 7.71133 68.247 7.89409 66.9022 8.26235C65.5546 8.63061 64.5699 8.99068 63.9425 9.3453L63.7788 9.05888C66.2011 7.94319 68.6616 7.38672 71.1658 7.38672C73.9672 7.38672 75.8194 7.89137 76.7169 8.89793C77.4234 9.68628 77.778 10.5183 77.778 11.3884V25.0603C77.778 25.8486 77.9335 26.4542 78.2472 26.877C78.5609 27.2998 78.88 27.5235 79.2074 27.5508L79.6548 27.6326H80.9205V27.96H79.6548L79.6575 27.9573ZM69.169 27.7936C70.612 27.7936 71.9104 27.2971 73.067 26.3042C74.2236 25.3113 74.8429 24.3511 74.9247 23.4263V18.489C74.1909 18.4344 73.4489 18.4071 72.7015 18.4071C71.9541 18.4071 71.2121 18.4481 70.4783 18.5299C68.4107 18.7754 67.0631 19.2391 66.4384 19.9183C65.8138 20.5976 65.5001 21.5387 65.5001 22.7335C65.5001 22.9517 65.5137 23.1972 65.541 23.4673C65.7865 26.3506 66.9949 27.7936 69.1744 27.7936H69.169Z" fill="#05091E"></path><path d="M98.8391 7.79629L99.0846 7.55078C99.1937 7.60534 99.3356 7.76901 99.5129 8.04179C99.6902 8.31457 99.7993 8.56008 99.8402 8.77557C99.8812 8.9938 99.9003 9.19839 99.9003 9.38934C99.9003 10.1231 99.7366 10.8733 99.412 11.6343L91.5749 27.9604H91.1658L83.5742 7.55351H86.4303L92.6742 24.4497L99.0001 11.6343C99.3274 11.0642 99.4884 10.3823 99.4884 9.59392C99.4884 8.80558 99.2701 8.20546 98.8364 7.79901L98.8391 7.79629Z" fill="#05091E"></path><path d="M104.882 2.97879C104.554 2.65145 104.391 2.245 104.391 1.75399C104.391 1.26298 104.554 0.851082 104.882 0.510103C105.209 0.169125 105.615 0 106.106 0C106.597 0 107.009 0.169125 107.35 0.510103C107.691 0.851082 107.86 1.26571 107.86 1.75399C107.86 2.24227 107.691 2.65145 107.35 2.97879C107.009 3.30612 106.595 3.46707 106.106 3.46707C105.618 3.46707 105.209 3.3034 104.882 2.97879ZM108.144 27.9575C107.028 27.9575 106.177 27.712 105.594 27.2237C105.007 26.7354 104.702 26.2444 104.677 25.7534L104.636 25.0605V7.55062H107.492V25.0605C107.492 25.8489 107.648 26.4545 107.961 26.8773C108.272 27.3001 108.581 27.5238 108.878 27.551L109.369 27.6329H110.635V27.9602H108.144V27.9575Z" fill="#05091E"></path><path d="M123.387 28.118C120.518 28.118 118.183 27.3024 116.388 25.6684C114.593 24.0344 113.695 21.5194 113.695 18.1178C113.695 14.7162 114.628 12.0784 116.491 10.1989C118.354 8.32216 120.722 7.38379 123.592 7.38379C126.462 7.38379 128.794 8.19941 130.591 9.83338C132.386 11.4673 133.284 13.9824 133.284 17.384C133.284 20.7856 132.351 23.4234 130.488 25.3029C128.625 27.1796 126.257 28.118 123.387 28.118ZM123.655 7.71386C121.587 7.71386 119.871 8.63313 118.513 10.469C117.151 12.3048 116.472 14.8635 116.472 18.1423C116.472 21.4212 117.097 23.8489 118.349 25.4284C119.601 27.0078 121.26 27.7961 123.327 27.7961C125.395 27.7961 127.108 26.8796 128.469 25.041C129.83 23.2052 130.51 20.6465 130.51 17.3676C130.51 14.0888 129.882 11.661 128.633 10.0816C127.381 8.50493 125.722 7.71386 123.655 7.71386Z" fill="#05091E"></path><path d="M154.509 27.9575C153.394 27.9575 152.543 27.712 151.959 27.2237C151.372 26.7354 151.067 26.2444 151.04 25.7534L150.999 25.0605V12.2452C150.999 10.0957 150.439 8.72083 149.326 8.12343C148.756 7.85065 148.047 7.71426 147.204 7.71426C145.461 7.71426 143.898 8.40167 142.51 9.7765C141.121 11.1513 140.428 12.3816 140.428 13.47V27.9575H137.572V7.55059H140.428V12.2043C140.889 11.034 141.749 9.94017 143.001 8.91996C144.253 7.89975 145.628 7.38965 147.122 7.38965C148.617 7.38965 149.837 7.5315 150.775 7.81792C151.713 8.10434 152.401 8.50533 152.837 9.02089C153.516 9.86379 153.857 10.9522 153.857 12.2861V25.0605C153.857 25.8488 154.013 26.4544 154.327 26.8772C154.638 27.3 154.959 27.5237 155.287 27.551L155.737 27.6328H157.003V27.9602H154.512L154.509 27.9575Z" fill="#05091E"></path><path d="M53.3254 38.787V37.9305C52.1006 38.4215 50.9849 39.4062 49.9784 40.8902C48.9718 42.3741 48.4399 43.768 48.3853 45.0746V57.4399H45.5293V37.033H48.3853V43.5225C48.8191 41.9458 49.651 40.4537 50.8758 39.0543C52.1006 37.6522 53.4891 36.9266 55.0385 36.8721H55.2022C55.7477 36.8721 56.2033 37.0548 56.5688 37.4231C56.9343 37.7913 57.1198 38.2469 57.1198 38.7897C57.1198 39.3326 56.9371 39.7827 56.5688 40.1373C56.2006 40.4919 55.745 40.6692 55.2022 40.6692C54.6593 40.6692 54.2092 40.4919 53.8546 40.1373C53.5 39.7827 53.3227 39.3353 53.3227 38.7897L53.3254 38.787Z" fill="#05091E"></path><path d="M80.3313 57.4397C78.4818 57.4397 77.2161 57.0851 76.5369 56.3785C75.9095 55.7812 75.5985 55.2629 75.5985 54.8264V53.9699C74.2646 56.3922 72.1287 57.6033 69.1909 57.6033C65.762 57.6033 63.8171 56.0512 63.3533 52.9497C63.2988 52.6223 63.2715 52.2895 63.2715 51.9486C63.2715 51.6076 63.326 51.2339 63.4352 50.8274C63.5443 50.4183 63.8552 49.9709 64.3735 49.4799C65.4074 48.5006 67.6797 47.9032 71.1876 47.685C72.0578 47.6031 72.8598 47.5622 73.5963 47.5622C74.3328 47.5622 74.9984 47.5895 75.5958 47.6441V40.8681C75.5412 40.8409 75.5412 40.7126 75.5958 40.4808C75.6504 40.2489 75.6013 39.9489 75.454 39.5833C75.3039 39.2151 75.1075 38.855 74.862 38.5031C74.6165 38.1485 74.1828 37.843 73.5554 37.5838C72.9307 37.3247 72.1124 37.1965 71.1058 37.1965C70.0992 37.1965 68.9208 37.3792 67.576 37.7475C66.2284 38.1158 65.2437 38.4758 64.6163 38.8277L64.4526 38.5413C66.8749 37.4256 69.3354 36.8691 71.8396 36.8691C74.6411 36.8691 76.4933 37.3711 77.3907 38.3776C78.0972 39.166 78.4518 39.998 78.4518 40.8681V54.54C78.4518 55.3283 78.6073 55.9339 78.921 56.3567C79.2347 56.7795 79.5539 57.0032 79.8812 57.0305L80.3286 57.1123H81.5943V57.4397H80.3286H80.3313ZM69.8428 57.276C71.2858 57.276 72.5843 56.7795 73.7409 55.7866C74.8975 54.7937 75.5167 53.8362 75.5985 52.9088V47.9714C74.8647 47.9168 74.1228 47.8896 73.3753 47.8896C72.6279 47.8896 71.886 47.9305 71.1522 48.0123C69.0845 48.2578 67.7369 48.7188 67.1123 49.4008C66.4876 50.08 66.1739 51.0211 66.1739 52.2159C66.1739 52.4341 66.1875 52.6796 66.2148 52.9497C66.4603 55.833 67.6687 57.276 69.8483 57.276H69.8428Z" fill="#05091E"></path><path d="M89.4757 64.745C88.6056 66.6763 87.5308 67.6419 86.2515 67.6419C85.6813 67.6419 85.013 67.5465 84.252 67.3555V67.0282C84.8766 67.1918 85.4358 67.2737 85.9241 67.2737C87.3126 67.2737 88.3737 66.4308 89.1075 64.7423L92.5364 57.4371H92.4954L84.9039 37.0303H87.7599L94.0858 54.0492L100.33 41.1111C100.657 40.5383 100.818 39.859 100.818 39.0707C100.818 38.2823 100.6 37.6822 100.166 37.2758L100.412 37.0303C100.521 37.0848 100.663 37.2485 100.84 37.5186C101.017 37.7913 101.126 38.0368 101.167 38.2523C101.208 38.4706 101.227 38.6752 101.227 38.8634C101.227 39.5972 101.064 40.3473 100.739 41.1084L92.9019 57.4344L89.473 64.7395L89.4757 64.745Z" fill="#05091E"></path><path d="M6.2849 48.5661C7.63518 48.1323 8.85451 47.8241 9.83926 46.703C10.7394 45.6827 11.2577 44.3434 11.2577 42.9822C11.2577 39.8752 8.76177 37.3574 5.65477 37.3574C3.59799 37.3574 1.67215 38.5195 0.706498 40.3362C-0.750161 43.0831 0.278229 46.6266 1.64487 49.1962C2.25863 50.3528 2.99242 51.4466 3.8435 52.4423C4.31541 52.996 4.84734 53.4925 5.39017 53.9781C5.77753 54.3245 6.14851 54.6382 6.58769 54.9192C6.66952 54.971 6.81956 55.0337 6.87684 54.9164C6.93958 54.7882 6.6968 54.6573 6.61224 54.6C5.52111 53.8826 4.78732 52.6442 4.46817 51.3948C4.15992 50.1973 4.86643 49.1444 5.95483 48.6888C6.06395 48.6424 6.17306 48.6042 6.2849 48.5688V48.5661Z" fill="#FF4433"></path><path d="M32.0121 41.1847C32.1703 33.615 20.0124 26.5881 20.0124 26.5881C9.65208 21.3479 10.4841 15.2785 10.4841 15.2785C10.4431 12.2479 13.1491 9.91017 15.1514 8.62264C16.3625 7.92704 17.0663 7.80702 17.0663 7.80702V7.65699C17.0663 7.57788 17.2218 7.65153 17.1454 7.64607L17.3473 7.77974L17.2054 7.64607C2.52699 8.63628 2.88161 20.2868 2.88161 20.2868C3.11348 30.0824 14.8268 36.5174 14.8268 36.5174C24.3496 43.2715 24.6824 48.3316 24.6824 48.3316C25.3807 52.6088 21.8564 55.574 19.745 56.9461C19.0222 57.4343 18.2338 57.5025 18.2338 57.5025C18.2338 57.5025 18.0974 57.5025 18.0865 57.6526C18.1056 57.8081 18.242 57.7999 18.242 57.7999C22.4156 57.0661 26.15 54.8593 28.6787 51.7305C31 48.8553 32.3094 45.2028 32.0121 41.1901V41.1847Z" fill="#FF4433"></path></g><defs><clipPath id="clip0_3960_1617"><rect width="157" height="67.6419" fill="white"></rect></clipPath></defs></svg>